# xmcd
#
# Track frame offsets: 
#        150
#        14913
#        30608
#        42114
#        55049
#        66374
#        80668
#        94305
#        114063
#        124958
#        136459
#        149111
#
# Disc length: 2226 seconds
#
# Revision: 2
# Processed by: cddbd v1.5.2PL0 Copyright (c) Steve Scherf et al.
# Submitted via: ExactAudioCopy v1.0b1
#
DISCID=b108b00c
DTITLE=Johnny Cash - Hello I'm Johnny Cash
DYEAR=1970
DGENRE=Country
TTITLE0=Southwind
TTITLE1=The Devil to Pay
TTITLE2=Cause I Love You
TTITLE3=See Ruby Fall
TTITLE4=Route 1 Box 144
TTITLE5=Sing a Traveling Song
TTITLE6=If I Were a Carpenter
TTITLE7=To Beat the Devil
TTITLE8=Blistered
TTITLE9=Wrinkled Crinkled Wadded Dollar Bill
TTITLE10=I've Got a Thing About Trains
TTITLE11=Jesus Was a Carpenter
EXTD=CS 9943 - CBS LP  63796
EXTT0=
EXTT1=
EXTT2=
EXTT3=
EXTT4=
EXTT5=
EXTT6=
EXTT7=
EXTT8=
EXTT9=
EXTT10=
EXTT11=
PLAYORDER=
